<svg width="92" height="32" viewBox="0 0 92 32" fill="none" xmlns="http://www.w3.org/2000/svg">
<path d="M89.395 12.7998C87.942 14.2528 86.1547 14.9792 84.0329 14.9792C81.9111 14.9792 80.1122 14.2528 78.6362 12.7998C77.1833 11.3469 76.4568 9.57103 76.4568 7.47232C76.4568 5.37362 77.1833 3.60932 78.6362 2.17943C80.1122 0.726475 81.9111 0 84.0329 0C86.1547 0 87.942 0.726475 89.395 2.17943C90.871 3.60932 91.609 5.37362 91.609 7.47232C91.609 9.57103 90.871 11.3469 89.395 12.7998ZM79.8124 3.21725C78.7054 4.34732 78.1519 5.76568 78.1519 7.47232C78.1519 9.17897 78.7054 10.6089 79.8124 11.762C80.9425 12.8921 82.3493 13.4571 84.0329 13.4571C85.7165 13.4571 87.1118 12.8921 88.2188 11.762C89.3489 10.6089 89.9139 9.17897 89.9139 7.47232C89.9139 5.76568 89.3489 4.34732 88.2188 3.21725C87.1118 2.08718 85.7165 1.52214 84.0329 1.52214C82.3493 1.52214 80.9425 2.08718 79.8124 3.21725ZM81.3691 10.8971V3.80535H84.8977C85.6358 3.80535 86.2354 4.00138 86.6966 4.39345C87.1579 4.78552 87.3885 5.2929 87.3885 5.91559C87.3885 6.35378 87.2501 6.73432 86.9734 7.05719C86.6966 7.38007 86.3276 7.58764 85.8664 7.67989C86.6044 7.84133 86.9965 8.32565 87.0426 9.13284L87.1118 10.1361C87.1579 10.5743 87.204 10.828 87.2501 10.8971H85.5896C85.5435 10.828 85.4974 10.5973 85.4513 10.2053L85.3821 9.23662C85.3359 8.61393 85.0361 8.30258 84.4826 8.30258H83.0297V10.8971H81.3691ZM83.0297 7.19557H84.5864C85.3244 7.19557 85.6934 6.81504 85.6934 6.05397C85.6934 5.75415 85.5896 5.51199 85.3821 5.32749C85.1745 5.14299 84.9093 5.05074 84.5864 5.05074H83.0297V7.19557Z" fill="black"/>
<path d="M56.7427 27.2257C59.4411 27.9175 61.2861 27.2487 62.2778 25.2192L62.5545 24.5965L55.3936 7.36865H61.067L65.495 18.6117L69.6117 7.36865H75.0084L67.9166 25.0116C66.8096 27.8253 65.2759 29.7856 63.3156 30.8926C61.3553 32.0227 59.1643 32.2879 56.7427 31.6883V27.2257Z" fill="black"/>
<path d="M47.6061 25.565C44.9308 25.565 42.7283 24.6771 40.9986 22.9012C39.2689 21.1254 38.4041 18.8768 38.4041 16.1554C38.4041 13.4109 39.2689 11.1508 40.9986 9.37493C42.7283 7.5991 44.9193 6.71118 47.5715 6.71118C50.5466 6.71118 52.8529 7.80666 54.4903 9.99762C56.1278 12.1655 56.7159 14.7831 56.2546 17.8505H43.8007C43.893 18.8883 44.2966 19.7416 45.0115 20.4104C45.7265 21.0793 46.6144 21.4137 47.6753 21.4137C48.5286 21.4137 49.3012 21.1946 49.9931 20.7564C50.685 20.2951 51.1577 19.707 51.4114 18.9921L55.9433 19.6494C55.5973 21.333 54.6517 22.7398 53.1065 23.8699C51.5844 24.9999 49.7509 25.565 47.6061 25.565ZM43.8353 13.8722H51.1001C51.1001 12.9958 50.7657 12.2462 50.0969 11.6235C49.428 11.0009 48.5863 10.6895 47.5715 10.6895C46.5798 10.6895 45.738 10.9893 45.0461 11.5889C44.3773 12.1655 43.9737 12.9266 43.8353 13.8722Z" fill="black"/>
<path d="M28.1753 25.4266C25.4539 25.4266 23.2053 24.5618 21.4294 22.8321C19.6767 21.0793 18.8003 18.8538 18.8003 16.1554C18.8003 13.434 19.6767 11.2085 21.4294 9.47876C23.2053 7.72599 25.4539 6.84961 28.1753 6.84961C30.9198 6.84961 33.1684 7.72599 34.9211 9.47876C36.697 11.2085 37.5849 13.434 37.5849 16.1554C37.5849 18.8538 36.697 21.0793 34.9211 22.8321C33.1684 24.5618 30.9198 25.4266 28.1753 25.4266ZM25.2694 12.696C24.5314 13.5955 24.1624 14.7486 24.1624 16.1554C24.1624 17.5622 24.5314 18.7154 25.2694 19.6148C26.0305 20.4912 26.9991 20.9294 28.1753 20.9294C29.3746 20.9294 30.3432 20.4912 31.0812 19.6148C31.8423 18.7154 32.2228 17.5622 32.2228 16.1554C32.2228 14.7486 31.8423 13.5955 31.0812 12.696C30.3432 11.7966 29.3746 11.3468 28.1753 11.3468C26.9991 11.3468 26.0305 11.7966 25.2694 12.696Z" fill="black"/>
<path d="M8.57934 25.3921C6.04244 25.3921 3.97832 24.6079 2.38699 23.0397C0.795664 21.4714 0 19.4304 0 16.9165L5.32749 16.5706C5.32749 17.7698 5.61578 18.7039 6.19235 19.3727C6.79198 20.0415 7.59917 20.3759 8.61393 20.3759C9.60563 20.3759 10.3898 20.0531 10.9663 19.4073C11.5429 18.7615 11.8312 17.8736 11.8312 16.7436V0.691895H17.4354V16.7436C17.4354 19.3266 16.6167 21.4138 14.9792 23.0051C13.3418 24.5964 11.2085 25.3921 8.57934 25.3921Z" fill="black"/>
</svg>
