<svg aria-hidden="true" style="position: absolute; width: 0; height: 0; overflow: hidden;" version="1.1" xmlns="http://www.w3.org/2000/svg" xmlns:xlink="http://www.w3.org/1999/xlink">
<defs>
<symbol id="icon-arrow-bottom" viewBox="0 0 26 32">
<path stroke="#000000" stroke-linejoin="miter" stroke-linecap="butt" stroke-miterlimit="4" stroke-width="2" d="M14.054 26.332c0.574-0.624 1.27-1.35 2.054-2.112 2.272-2.208 5.382-4.82 8.562-6.144l0.77 1.848c-2.82 1.174-5.71 3.564-7.94 5.73-1.247 1.218-2.424 2.488-3.536 3.814l-0.066 0.080-0.048 0.060-0.012 0.014-0.002 0.002-0.78 0.976-0.782-0.976-0.004-0.002-0.010-0.014-0.048-0.060c-0.357-0.431-0.664-0.788-0.976-1.14l0.038 0.044c-0.883-0.996-1.753-1.908-2.655-2.787l-0.011-0.011c-2.228-2.166-5.118-4.554-7.938-5.73l0.77-1.848c3.18 1.326 6.29 3.936 8.56 6.144 0.786 0.762 1.48 1.488 2.054 2.112v-25.332h2v25.332z"></path>
</symbol>
<symbol id="icon-arrow-diagonal" viewBox="0 0 34 32">
<path stroke="#FFFFFF" stroke-linejoin="miter" stroke-linecap="butt" stroke-miterlimit="4" stroke-width="1.6" d="M22.048 9.56c-0.678 0.027-1.48 0.045-2.355 0.032-2.536-0.035-5.771-0.32-8.32-1.368l0.61-1.48c2.261 0.931 5.248 1.213 7.733 1.248 0.156 0.002 0.341 0.003 0.525 0.003 1.308 0 2.602-0.060 3.878-0.179l-0.164 0.012 0.062-0.006 0.014-0.002h0.003l0.994-0.112-0.11 0.995v0.003l-0.002 0.016-0.006 0.059c-0.027 0.253-0.059 0.651-0.084 1.051l-0.005 0.101c-0.048 0.774-0.091 1.859-0.074 3.088 0.034 2.486 0.317 5.474 1.248 7.734l-1.48 0.608c-1.050-2.547-1.333-5.784-1.368-8.32-0.013-0.874 0.005-1.675 0.032-2.354l-14.33 14.33-1.131-1.131 14.33-14.33z"></path>
</symbol>
<symbol id="icon-arrow-right" viewBox="0 0 34 32">
<path stroke-linejoin="miter" stroke-linecap="butt" stroke-miterlimit="4" stroke-width="2.2857" d="M28.951 14.795c-0.849-0.782-1.635-1.548-2.401-2.334l-0.013-0.013c-2.523-2.597-5.509-6.151-7.022-9.785l2.112-0.88c1.342 3.223 4.073 6.526 6.549 9.074 1.392 1.426 2.843 2.771 4.358 4.041l0.092 0.075 0.069 0.055 0.016 0.014 0.002 0.002 1.115 0.891-1.115 0.894-0.002 0.005-0.016 0.011-0.069 0.055-0.267 0.222c-1.506 1.278-2.87 2.551-4.171 3.885l-0.012 0.012c-2.475 2.546-5.207 5.849-6.549 9.072l-2.112-0.88c1.515-3.634 4.498-7.189 7.022-9.783 0.871-0.898 1.701-1.691 2.414-2.347h-28.951v-2.286h28.951z"></path>
</symbol>
<symbol id="icon-logo" viewBox="0 0 92 32">
<path d="M89.395 12.8c-1.453 1.453-3.24 2.18-5.362 2.18s-3.92-0.727-5.397-2.18c-1.453-1.453-2.18-3.229-2.18-5.328 0-2.098 0.727-3.863 2.18-5.293 1.476-1.453 3.275-2.179 5.397-2.179s3.909 0.726 5.362 2.18c1.476 1.43 2.214 3.194 2.214 5.292 0 2.099-0.738 3.875-2.214 5.328zM79.812 3.217c-1.107 1.13-1.66 2.549-1.66 4.255 0 1.707 0.553 3.137 1.66 4.29 1.13 1.13 2.537 1.695 4.22 1.695 1.684 0 3.080-0.565 4.187-1.695 1.13-1.153 1.695-2.583 1.695-4.29s-0.565-3.125-1.695-4.255c-1.107-1.13-2.502-1.695-4.186-1.695s-3.090 0.565-4.22 1.695zM81.369 10.897v-7.092h3.529c0.738 0 1.337 0.196 1.799 0.588 0.46 0.393 0.691 0.9 0.691 1.523 0 0.438-0.138 0.818-0.415 1.141-0.276 0.323-0.645 0.53-1.107 0.623 0.738 0.161 1.13 0.646 1.177 1.453l0.069 1.003c0.046 0.438 0.092 0.692 0.138 0.761h-1.66c-0.047-0.069-0.093-0.3-0.139-0.692l-0.069-0.968c-0.046-0.623-0.346-0.934-0.9-0.934h-1.452v2.594h-1.66zM83.029 7.196h1.557c0.738 0 1.107-0.381 1.107-1.142 0-0.3-0.103-0.542-0.31-0.727-0.209-0.184-0.474-0.276-0.797-0.276h-1.556v2.145zM56.743 27.226c2.698 0.692 4.543 0.023 5.535-2.007l0.276-0.623-7.16-17.227h5.673l4.428 11.243 4.117-11.243h5.396l-7.091 17.643c-1.107 2.813-2.641 4.774-4.601 5.88-1.96 1.13-4.152 1.396-6.573 0.796v-4.462z"></path>
<path d="M47.606 25.565c-2.675 0-4.878-0.888-6.607-2.664s-2.595-4.024-2.595-6.746c0-2.744 0.865-5.004 2.595-6.78s3.92-2.664 6.572-2.664c2.976 0 5.282 1.096 6.92 3.287 1.637 2.168 2.225 4.785 1.764 7.853h-12.455c0.092 1.037 0.496 1.89 1.21 2.56 0.715 0.668 1.603 1.003 2.664 1.003 0.854 0 1.626-0.22 2.318-0.658 0.692-0.46 1.165-1.049 1.418-1.764l4.532 0.657c-0.346 1.684-1.291 3.090-2.837 4.22-1.522 1.13-3.355 1.696-5.5 1.696zM43.836 13.872h7.264c0-0.876-0.334-1.626-1.003-2.248s-1.51-0.934-2.526-0.934c-0.991 0-1.833 0.3-2.525 0.899-0.669 0.576-1.072 1.338-1.21 2.283zM28.175 25.427c-2.721 0-4.97-0.865-6.746-2.595-1.752-1.753-2.629-3.978-2.629-6.677 0-2.721 0.877-4.947 2.63-6.676 1.775-1.753 4.024-2.63 6.745-2.63 2.745 0 4.993 0.877 6.746 2.63 1.776 1.73 2.664 3.955 2.664 6.676 0 2.699-0.888 4.924-2.664 6.677-1.753 1.73-4.001 2.595-6.746 2.595zM25.27 12.696c-0.738 0.9-1.107 2.053-1.107 3.46 0 1.406 0.37 2.56 1.107 3.459 0.762 0.876 1.73 1.314 2.906 1.314 1.2 0 2.168-0.438 2.906-1.314 0.761-0.9 1.142-2.053 1.142-3.46s-0.38-2.56-1.142-3.459c-0.738-0.9-1.706-1.35-2.906-1.35-1.176 0-2.145 0.45-2.906 1.35zM8.58 25.392c-2.538 0-4.602-0.784-6.193-2.352-1.591-1.57-2.387-3.61-2.387-6.123l5.327-0.346c0 1.199 0.289 2.133 0.865 2.802 0.6 0.668 1.407 1.003 2.422 1.003 0.992 0 1.776-0.323 2.352-0.969 0.577-0.645 0.865-1.533 0.865-2.663v-16.052h5.604v16.052c0 2.583-0.818 4.67-2.456 6.261s-3.77 2.387-6.4 2.387z"></path>
</symbol>
<symbol id="icon-number" viewBox="0 0 32 32">
<path fill="#c4c4c4" style="fill: var(--color2, #c4c4c4)" d="M32 16c0 8.837-7.163 16-16 16s-16-7.163-16-16 7.163-16 16-16 16 7.163 16 16z"></path>
<path d="M23.702 19.408c-0.8 1.067-1.845 1.6-3.136 1.6s-2.336-0.533-3.136-1.6c-0.79-1.077-1.184-2.48-1.184-4.208s0.394-3.125 1.184-4.192c0.8-1.077 1.845-1.616 3.136-1.616s2.336 0.539 3.136 1.616c0.8 1.067 1.2 2.464 1.2 4.192s-0.4 3.131-1.2 4.208zM18.886 12.272c-0.427 0.747-0.64 1.723-0.64 2.928 0 1.206 0.213 2.182 0.64 2.928 0.437 0.747 0.997 1.12 1.68 1.12 0.693 0 1.253-0.373 1.68-1.12 0.437-0.746 0.656-1.722 0.656-2.928 0-1.205-0.219-2.181-0.656-2.928-0.427-0.747-0.987-1.12-1.68-1.12-0.683 0-1.243 0.373-1.68 1.12zM7.248 19.36c2.229-1.845 3.723-3.184 4.48-4.016s1.136-1.621 1.136-2.368c0-0.565-0.181-1.029-0.544-1.392-0.352-0.363-0.805-0.544-1.36-0.544-0.017-0.001-0.036-0.001-0.056-0.001-0.56 0-1.059 0.262-1.381 0.669l-0.003 0.004c-0.363 0.437-0.544 1.008-0.544 1.712h-2c0-1.227 0.363-2.224 1.088-2.992 0.736-0.768 1.717-1.152 2.944-1.152 1.163 0 2.096 0.331 2.8 0.992s1.056 1.531 1.056 2.608c0 1.013-0.389 2.011-1.168 2.992-0.768 0.971-2.048 2.080-3.84 3.328h4.72v1.6h-7.328v-1.44z"></path>
</symbol>
</defs>
</svg>
